<svg data-generator="nowline" data-theme="light" height="515.44" viewBox="0 0 681.2 515.44" width="681.2" xmlns="http://www.w3.org/2000/svg"><defs><filter height="200%" id="nl-0-root-shadow-subtle" width="200%" x="-50%" y="-50%"><feGaussianBlur in="SourceAlpha" stdDeviation="1.5"/><feOffset dx="0" dy="1" result="offsetblur"/><feComponentTransfer><feFuncA type="linear" slope="0.2"/></feComponentTransfer><feMerge><feMergeNode/><feMergeNode in="SourceGraphic"/></feMerge></filter><filter height="200%" id="nl-0-root-shadow-fuzzy" width="200%" x="-50%" y="-50%"><feGaussianBlur in="SourceAlpha" stdDeviation="5"/><feOffset dx="0" dy="3" result="offsetblur"/><feComponentTransfer><feFuncA type="linear" slope="0.3"/></feComponentTransfer><feMerge><feMergeNode/><feMergeNode in="SourceGraphic"/></feMerge></filter><filter height="200%" id="nl-0-root-shadow-hard" width="200%" x="-50%" y="-50%"><feGaussianBlur in="SourceAlpha" stdDeviation="0"/><feOffset dx="2" dy="2" result="offsetblur"/><feComponentTransfer><feFuncA type="linear" slope="0.45"/></feComponentTransfer><feMerge><feMergeNode/><feMergeNode in="SourceGraphic"/></feMerge></filter><marker id="nl-arrow" viewBox="0 0 10 10" refX="9" refY="5" markerWidth="7" markerHeight="7" orient="auto"><path d="M 0 0 L 10 5 L 0 10 z" fill="#475569"/></marker><marker id="nl-arrow-light" viewBox="0 0 10 10" refX="9" refY="5" markerWidth="7" markerHeight="7" orient="auto"><path d="M 0 0 L 10 5 L 0 10 z" fill="#94a3b8"/></marker><marker id="nl-arrow-dark" viewBox="0 0 10 10" refX="9" refY="5" markerWidth="7" markerHeight="7" orient="auto"><path d="M 0 0 L 10 5 L 0 10 z" fill="#0f172a"/></marker></defs><rect fill="#f8fafc" height="515.44" width="681.2" x="0" y="0"/><g data-layer="timeline"><rect fill="#ffffff" height="24" rx="4" ry="4" stroke="#e2e8f0" stroke-width="1" width="480" x="189.2" y="24"/><rect fill="#ffffff" height="52" rx="4" ry="4" stroke="#e2e8f0" stroke-width="1" width="480" x="189.2" y="48"/><text fill="#64748b" font-family="system-ui, -apple-system, &quot;Segoe UI&quot;, Roboto, sans-serif" font-size="10" text-anchor="middle" x="209.2" y="39">Jan 05</text><text fill="#64748b" font-family="system-ui, -apple-system, &quot;Segoe UI&quot;, Roboto, sans-serif" font-size="10" text-anchor="middle" x="249.2" y="39">Jan 10</text><text fill="#64748b" font-family="system-ui, -apple-system, &quot;Segoe UI&quot;, Roboto, sans-serif" font-size="10" text-anchor="middle" x="289.2" y="39">Jan 15</text><text fill="#64748b" font-family="system-ui, -apple-system, &quot;Segoe UI&quot;, Roboto, sans-serif" font-size="10" text-anchor="middle" x="329.2" y="39">Jan 20</text><text fill="#64748b" font-family="system-ui, -apple-system, &quot;Segoe UI&quot;, Roboto, sans-serif" font-size="10" text-anchor="middle" x="369.2" y="39">Jan 25</text><text fill="#64748b" font-family="system-ui, -apple-system, &quot;Segoe UI&quot;, Roboto, sans-serif" font-size="10" text-anchor="middle" x="409.2" y="39">Jan 30</text><text fill="#64748b" font-family="system-ui, -apple-system, &quot;Segoe UI&quot;, Roboto, sans-serif" font-size="10" text-anchor="middle" x="449.2" y="39">Feb 04</text><text fill="#64748b" font-family="system-ui, -apple-system, &quot;Segoe UI&quot;, Roboto, sans-serif" font-size="10" text-anchor="middle" x="489.2" y="39">Feb 09</text><text fill="#64748b" font-family="system-ui, -apple-system, &quot;Segoe UI&quot;, Roboto, sans-serif" font-size="10" text-anchor="middle" x="529.2" y="39">Feb 14</text><text fill="#64748b" font-family="system-ui, -apple-system, &quot;Segoe UI&quot;, Roboto, sans-serif" font-size="10" text-anchor="middle" x="569.2" y="39">Feb 19</text><text fill="#64748b" font-family="system-ui, -apple-system, &quot;Segoe UI&quot;, Roboto, sans-serif" font-size="10" text-anchor="middle" x="609.2" y="39">Feb 24</text><text fill="#64748b" font-family="system-ui, -apple-system, &quot;Segoe UI&quot;, Roboto, sans-serif" font-size="10" text-anchor="middle" x="649.2" y="39">Mar 01</text></g><g data-id="backend" data-layer="swimlane-bg"><rect fill="#ffffff" height="218" stroke="#e2e8f0" stroke-width="1" width="681.2" x="0" y="108"/></g><g data-id="frontend" data-layer="swimlane-bg"><rect fill="#f8fafc" height="154" stroke="#e2e8f0" stroke-width="1" width="681.2" x="0" y="326"/></g><g data-layer="grid"><line stroke="#cbd5e1" stroke-width="1" x1="189.2" x2="189.2" y1="24" y2="480"/><line stroke="#cbd5e1" stroke-width="1" x1="229.2" x2="229.2" y1="24" y2="480"/><line stroke="#cbd5e1" stroke-width="1" x1="269.2" x2="269.2" y1="24" y2="480"/><line stroke="#cbd5e1" stroke-width="1" x1="309.2" x2="309.2" y1="24" y2="480"/><line stroke="#cbd5e1" stroke-width="1" x1="349.2" x2="349.2" y1="24" y2="480"/><line stroke="#cbd5e1" stroke-width="1" x1="389.2" x2="389.2" y1="24" y2="480"/><line stroke="#cbd5e1" stroke-width="1" x1="429.2" x2="429.2" y1="24" y2="480"/><line stroke="#cbd5e1" stroke-width="1" x1="469.2" x2="469.2" y1="24" y2="480"/><line stroke="#cbd5e1" stroke-width="1" x1="509.2" x2="509.2" y1="24" y2="480"/><line stroke="#cbd5e1" stroke-width="1" x1="549.2" x2="549.2" y1="24" y2="480"/><line stroke="#cbd5e1" stroke-width="1" x1="589.2" x2="589.2" y1="24" y2="480"/><line stroke="#cbd5e1" stroke-width="1" x1="629.2" x2="629.2" y1="24" y2="480"/><line stroke="#cbd5e1" stroke-width="1" x1="669.2" x2="669.2" y1="24" y2="480"/></g><path d="M263.2 146 L266.2 146 Q269.2 146 269.2 149 L269.2 361 Q269.2 364 272.2 364 L275.2 364" fill="none" marker-end="url(#nl-arrow)" stroke="#475569" stroke-linejoin="round" stroke-width="0.8"/><path d="M383.2 210 L386.2 210 Q389.2 210 389.2 213 L389.2 425 Q389.2 428 392.2 428 L395.2 428" fill="none" marker-end="url(#nl-arrow)" stroke="#475569" stroke-linejoin="round" stroke-width="0.8"/><g data-id="backend" data-layer="swimlane"><rect fill="#f1f5f9" height="22" rx="4" ry="4" stroke="#cbd5e1" stroke-width="1" width="69.5" x="10" y="118"/><text fill="#334155" font-family="system-ui, -apple-system, &quot;Segoe UI&quot;, Roboto, sans-serif" font-size="12" font-weight="600" x="22" y="133">Backend</text><g data-id="api" data-layer="item"><rect fill="#f8fafc" filter="url(#nl-0-root-shadow-subtle)" height="56" rx="4" ry="4" stroke="#94a3b8" stroke-width="1" width="68" x="195.2" y="118"/><circle cx="251.2" cy="130" fill="#334155" r="5"/><text fill="#0f172a" font-family="system-ui, -apple-system, &quot;Segoe UI&quot;, Roboto, sans-serif" font-size="13" font-weight="600" x="269.2" y="138">API v2</text><text fill="#0f172a" font-family="system-ui, -apple-system, &quot;Segoe UI&quot;, Roboto, sans-serif" font-size="11" x="269.2" y="156">2w</text></g><g data-id="concurrent-block" data-layer="parallel"><path d="M273.2 170 H269.2 V322 H273.2" fill="none" stroke="#334155" stroke-linejoin="round" stroke-width="1.25"/><path d="M545.2 170 H549.2 V322 H545.2" fill="none" stroke="#334155" stroke-linejoin="round" stroke-width="1.25"/><text fill="#0f172a" fill-opacity="0.7" font-family="system-ui, -apple-system, &quot;Segoe UI&quot;, Roboto, sans-serif" font-size="10" font-style="normal" font-weight="400" x="273.2" y="180">concurrent-block</text><g data-id="search" data-layer="item"><rect fill="#f8fafc" filter="url(#nl-0-root-shadow-subtle)" height="56" rx="4" ry="4" stroke="#94a3b8" stroke-width="1" width="108" x="275.2" y="182"/><circle cx="371.2" cy="194" fill="#334155" r="5"/><text fill="#0f172a" font-family="system-ui, -apple-system, &quot;Segoe UI&quot;, Roboto, sans-serif" font-size="13" font-weight="600" x="389.2" y="202">Search service</text><text fill="#0f172a" font-family="system-ui, -apple-system, &quot;Segoe UI&quot;, Roboto, sans-serif" font-size="11" x="389.2" y="220">3w</text></g><g data-id="audit" data-layer="item"><rect fill="#f8fafc" filter="url(#nl-0-root-shadow-subtle)" height="56" rx="4" ry="4" stroke="#94a3b8" stroke-width="1" width="268" x="275.2" y="246"/><circle cx="531.2" cy="258" fill="#334155" r="5"/><text fill="#0f172a" font-family="system-ui, -apple-system, &quot;Segoe UI&quot;, Roboto, sans-serif" font-size="13" font-weight="600" x="287.2" y="266">Audit pipeline</text><text fill="#94a3b8" font-family="system-ui, -apple-system, &quot;Segoe UI&quot;, Roboto, sans-serif" font-size="11" x="287.2" y="284">7w</text></g></g><g data-id="deploy" data-layer="item"><rect fill="#f8fafc" filter="url(#nl-0-root-shadow-subtle)" height="56" rx="4" ry="4" stroke="#94a3b8" stroke-width="1" width="28" x="555.2" y="118"/><circle cx="571.2" cy="130" fill="#334155" r="5"/><text fill="#0f172a" font-family="system-ui, -apple-system, &quot;Segoe UI&quot;, Roboto, sans-serif" font-size="13" font-weight="600" x="589.2" y="138">Deploy</text><text fill="#0f172a" font-family="system-ui, -apple-system, &quot;Segoe UI&quot;, Roboto, sans-serif" font-size="11" x="589.2" y="156">1w</text></g></g><g data-id="frontend" data-layer="swimlane"><rect fill="#f1f5f9" height="22" rx="4" ry="4" stroke="#cbd5e1" stroke-width="1" width="76" x="10" y="336"/><text fill="#334155" font-family="system-ui, -apple-system, &quot;Segoe UI&quot;, Roboto, sans-serif" font-size="12" font-weight="600" x="22" y="351">Frontend</text><g data-id="sdk" data-layer="item"><rect fill="#f8fafc" filter="url(#nl-0-root-shadow-subtle)" height="56" rx="4" ry="4" stroke="#94a3b8" stroke-width="1" width="68" x="275.2" y="336"/><circle cx="331.2" cy="348" fill="#334155" r="5"/><text fill="#0f172a" font-family="system-ui, -apple-system, &quot;Segoe UI&quot;, Roboto, sans-serif" font-size="13" font-weight="600" x="349.2" y="356">SDK update</text><text fill="#0f172a" font-family="system-ui, -apple-system, &quot;Segoe UI&quot;, Roboto, sans-serif" font-size="11" x="349.2" y="374">2w</text></g><g data-id="ui" data-layer="item"><rect fill="#f8fafc" filter="url(#nl-0-root-shadow-subtle)" height="56" rx="4" ry="4" stroke="#94a3b8" stroke-width="1" width="108" x="395.2" y="400"/><circle cx="491.2" cy="412" fill="#334155" r="5"/><text fill="#0f172a" font-family="system-ui, -apple-system, &quot;Segoe UI&quot;, Roboto, sans-serif" font-size="13" font-weight="600" x="509.2" y="420">New console UI</text><text fill="#0f172a" font-family="system-ui, -apple-system, &quot;Segoe UI&quot;, Roboto, sans-serif" font-size="11" x="509.2" y="438">3w</text></g></g><path d="M189.2 146 L195.2 146" fill="none" marker-end="url(#nl-arrow)" stroke="#475569" stroke-linejoin="round" stroke-width="1.1"/><path d="M343.2 364 L365.2 364 Q369.2 364 369.2 368 L369.2 424 Q369.2 428 373.2 428 L395.2 428" fill="none" marker-end="url(#nl-arrow)" stroke="#475569" stroke-linejoin="round" stroke-width="1.1"/><line stroke="#64748b" stroke-dasharray="1 3" stroke-width="1" x1="189.2" x2="189.2" y1="94" y2="480"/><line stroke="#64748b" stroke-dasharray="1 3" stroke-width="1" x1="637.2" x2="637.2" y1="68" y2="480"/><line stroke="#1e1b4b" stroke-dasharray="6 4" stroke-linecap="round" stroke-width="2" x1="583.2" x2="583.2" y1="94" y2="480"/><path d="M503.2 454 H577.2" fill="none" marker-end="url(#nl-arrow-dark)" stroke="#0f172a" stroke-dasharray="3 3" stroke-linecap="round" stroke-width="1.1"/><g data-id="kickoff" data-layer="anchor"><path d="M189.2 81 L195.2 87 L189.2 93 L183.2 87 Z" fill="#ffffff" stroke="#334155" stroke-width="1.25"/><text fill="#334155" font-family="system-ui, -apple-system, &quot;Segoe UI&quot;, Roboto, sans-serif" font-size="10" x="201.2" y="91">kickoff</text></g><g data-id="code-freeze" data-layer="anchor"><path d="M637.2 55 L643.2 61 L637.2 67 L631.2 61 Z" fill="#ffffff" stroke="#334155" stroke-width="1.25"/><text fill="#334155" font-family="system-ui, -apple-system, &quot;Segoe UI&quot;, Roboto, sans-serif" font-size="10" text-anchor="end" x="625.2" y="65">code-freeze</text></g><g data-id="beta" data-layer="milestone"><path d="M583.2 81 L589.2 87 L583.2 93 L577.2 87 Z" fill="#0f172a" stroke="#0f172a" stroke-width="1"/><text fill="#0f172a" font-family="system-ui, -apple-system, &quot;Segoe UI&quot;, Roboto, sans-serif" font-size="10" font-weight="600" x="595.2" y="91">Beta</text></g><g data-layer="nowline"><line stroke="#e53e3e" stroke-width="2.25" x1="469.2" x2="469.2" y1="24" y2="480"/><rect fill="#e53e3e" height="16" rx="8" ry="8" width="36" x="451.2" y="8"/><text fill="#ffffff" font-family="system-ui, -apple-system, &quot;Segoe UI&quot;, Roboto, sans-serif" font-size="10" font-weight="700" text-anchor="middle" x="469.2" y="20">now</text></g><g data-id="nl-0-root-header" data-layer="header"><rect fill="#ffffff" filter="url(#nl-0-root-shadow-subtle)" height="58" rx="6" ry="6" stroke="#e2e8f0" stroke-width="1" width="171.2" x="6" y="16"/><text fill="#0f172a" font-family="system-ui, -apple-system, &quot;Segoe UI&quot;, Roboto, sans-serif" font-size="16" font-weight="600" x="22" y="42">Dependency Demo</text><text fill="#64748b" font-family="system-ui, -apple-system, &quot;Segoe UI&quot;, Roboto, sans-serif" font-size="11" x="22" y="60">Platform engineering</text></g><a aria-label="Powered by nowline" href="https://nowline.io" rel="noopener" target="_blank"><g data-layer="attribution"><g transform="translate(593.04 492) scale(0.22)"><text fill="#94a3b8" font-family="system-ui, -apple-system, &quot;Segoe UI&quot;, Roboto, sans-serif" font-size="32" font-weight="400" x="0" y="40">Powered by</text><text fill="#94a3b8" font-family="system-ui, -apple-system, &quot;Segoe UI&quot;, Roboto, sans-serif" font-size="40" font-weight="700" x="195.6" y="40">now</text><rect fill="#e53e3e" height="40" width="5" x="269.6" y="12"/><text fill="#94a3b8" font-family="system-ui, -apple-system, &quot;Segoe UI&quot;, Roboto, sans-serif" font-size="40" font-weight="400" x="276.6" y="40">ine</text></g></g></a></svg>