<svg data-generator="nowline" data-theme="light" height="458" viewBox="0 0 667.4 458" width="667.4" xmlns="http://www.w3.org/2000/svg"><defs><filter height="200%" id="nl-0-root-shadow-subtle" width="200%" x="-50%" y="-50%"><feGaussianBlur in="SourceAlpha" stdDeviation="1.5"/><feOffset dx="0" dy="1" result="offsetblur"/><feComponentTransfer><feFuncA type="linear" slope="0.2"/></feComponentTransfer><feMerge><feMergeNode/><feMergeNode in="SourceGraphic"/></feMerge></filter><filter height="200%" id="nl-0-root-shadow-fuzzy" width="200%" x="-50%" y="-50%"><feGaussianBlur in="SourceAlpha" stdDeviation="5"/><feOffset dx="0" dy="3" result="offsetblur"/><feComponentTransfer><feFuncA type="linear" slope="0.3"/></feComponentTransfer><feMerge><feMergeNode/><feMergeNode in="SourceGraphic"/></feMerge></filter><filter height="200%" id="nl-0-root-shadow-hard" width="200%" x="-50%" y="-50%"><feGaussianBlur in="SourceAlpha" stdDeviation="0"/><feOffset dx="2" dy="2" result="offsetblur"/><feComponentTransfer><feFuncA type="linear" slope="0.45"/></feComponentTransfer><feMerge><feMergeNode/><feMergeNode in="SourceGraphic"/></feMerge></filter><marker id="nl-arrow" viewBox="0 0 10 10" refX="9" refY="5" markerWidth="7" markerHeight="7" orient="auto"><path d="M 0 0 L 10 5 L 0 10 z" fill="#475569"/></marker><marker id="nl-arrow-light" viewBox="0 0 10 10" refX="9" refY="5" markerWidth="7" markerHeight="7" orient="auto"><path d="M 0 0 L 10 5 L 0 10 z" fill="#94a3b8"/></marker><marker id="nl-arrow-dark" viewBox="0 0 10 10" refX="9" refY="5" markerWidth="7" markerHeight="7" orient="auto"><path d="M 0 0 L 10 5 L 0 10 z" fill="#0f172a"/></marker></defs><rect fill="#f8fafc" height="458" width="667.4" x="0" y="0"/><g data-layer="timeline"><rect fill="#ffffff" height="24" rx="4" ry="4" stroke="#e2e8f0" stroke-width="1" width="400" x="251.4" y="26"/><rect fill="#ffffff" height="26" rx="4" ry="4" stroke="#e2e8f0" stroke-width="1" width="400" x="251.4" y="50"/><text fill="#64748b" font-family="system-ui, -apple-system, &quot;Segoe UI&quot;, Roboto, sans-serif" font-size="10" text-anchor="middle" x="271.4" y="41">Jan 05</text><line stroke="#e2e8f0" stroke-dasharray="2 3" stroke-width="1" x1="251.4" x2="251.4" y1="76" y2="426"/><text fill="#64748b" font-family="system-ui, -apple-system, &quot;Segoe UI&quot;, Roboto, sans-serif" font-size="10" text-anchor="middle" x="311.4" y="41">Jan 10</text><line stroke="#e2e8f0" stroke-dasharray="2 3" stroke-width="1" x1="291.4" x2="291.4" y1="76" y2="426"/><text fill="#64748b" font-family="system-ui, -apple-system, &quot;Segoe UI&quot;, Roboto, sans-serif" font-size="10" text-anchor="middle" x="351.4" y="41">Jan 15</text><line stroke="#e2e8f0" stroke-dasharray="2 3" stroke-width="1" x1="331.4" x2="331.4" y1="76" y2="426"/><text fill="#64748b" font-family="system-ui, -apple-system, &quot;Segoe UI&quot;, Roboto, sans-serif" font-size="10" text-anchor="middle" x="391.4" y="41">Jan 20</text><line stroke="#e2e8f0" stroke-dasharray="2 3" stroke-width="1" x1="371.4" x2="371.4" y1="76" y2="426"/><text fill="#64748b" font-family="system-ui, -apple-system, &quot;Segoe UI&quot;, Roboto, sans-serif" font-size="10" text-anchor="middle" x="431.4" y="41">Jan 25</text><line stroke="#e2e8f0" stroke-dasharray="2 3" stroke-width="1" x1="411.4" x2="411.4" y1="76" y2="426"/><text fill="#64748b" font-family="system-ui, -apple-system, &quot;Segoe UI&quot;, Roboto, sans-serif" font-size="10" text-anchor="middle" x="471.4" y="41">Jan 30</text><line stroke="#e2e8f0" stroke-dasharray="2 3" stroke-width="1" x1="451.4" x2="451.4" y1="76" y2="426"/><text fill="#64748b" font-family="system-ui, -apple-system, &quot;Segoe UI&quot;, Roboto, sans-serif" font-size="10" text-anchor="middle" x="511.4" y="41">Feb 04</text><line stroke="#e2e8f0" stroke-dasharray="2 3" stroke-width="1" x1="491.4" x2="491.4" y1="76" y2="426"/><text fill="#64748b" font-family="system-ui, -apple-system, &quot;Segoe UI&quot;, Roboto, sans-serif" font-size="10" text-anchor="middle" x="551.4" y="41">Feb 09</text><line stroke="#e2e8f0" stroke-dasharray="2 3" stroke-width="1" x1="531.4" x2="531.4" y1="76" y2="426"/><text fill="#64748b" font-family="system-ui, -apple-system, &quot;Segoe UI&quot;, Roboto, sans-serif" font-size="10" text-anchor="middle" x="591.4" y="41">Feb 14</text><line stroke="#e2e8f0" stroke-dasharray="2 3" stroke-width="1" x1="571.4" x2="571.4" y1="76" y2="426"/><text fill="#64748b" font-family="system-ui, -apple-system, &quot;Segoe UI&quot;, Roboto, sans-serif" font-size="10" text-anchor="middle" x="631.4" y="41">Feb 19</text><line stroke="#e2e8f0" stroke-dasharray="2 3" stroke-width="1" x1="611.4" x2="611.4" y1="76" y2="426"/><line stroke="#e2e8f0" stroke-dasharray="2 3" stroke-width="1" x1="651.4" x2="651.4" y1="76" y2="426"/></g><g data-id="core" data-layer="swimlane"><rect fill="#ffffff" height="96" stroke="#e2e8f0" stroke-width="1" width="667.4" x="0" y="84"/><rect fill="#f1f5f9" height="22" rx="4" ry="4" stroke="#cbd5e1" stroke-width="1" width="64" x="10" y="94"/><text fill="#334155" font-family="system-ui, -apple-system, &quot;Segoe UI&quot;, Roboto, sans-serif" font-size="12" font-weight="600" x="22" y="109">Core</text><g data-id="core-api" data-layer="item"><rect fill="#f8fafc" filter="url(#nl-0-root-shadow-subtle)" height="56" rx="4" ry="4" stroke="#94a3b8" stroke-width="1" width="108" x="257.4" y="94"/><circle cx="353.4" cy="106" fill="#94a3b8" r="5"/><text fill="#0f172a" font-family="system-ui, -apple-system, &quot;Segoe UI&quot;, Roboto, sans-serif" font-size="13" font-weight="600" x="269.4" y="114">Core API</text><text fill="#94a3b8" font-family="system-ui, -apple-system, &quot;Segoe UI&quot;, Roboto, sans-serif" font-size="11" x="269.4" y="132">3w</text></g><g data-id="migrations" data-layer="item"><rect fill="#f8fafc" filter="url(#nl-0-root-shadow-subtle)" height="56" rx="4" ry="4" stroke="#94a3b8" stroke-width="1" width="68" x="377.4" y="94"/><circle cx="433.4" cy="106" fill="#94a3b8" r="5"/><text fill="#0f172a" font-family="system-ui, -apple-system, &quot;Segoe UI&quot;, Roboto, sans-serif" font-size="13" font-weight="600" x="451.4" y="114">Migrations</text><text fill="#94a3b8" font-family="system-ui, -apple-system, &quot;Segoe UI&quot;, Roboto, sans-serif" font-size="11" x="451.4" y="132">2w</text></g></g><g data-id="integrations" data-layer="swimlane"><rect fill="#f8fafc" height="96" stroke="#e2e8f0" stroke-width="1" width="667.4" x="0" y="180"/><rect fill="#f1f5f9" height="22" rx="4" ry="4" stroke="#cbd5e1" stroke-width="1" width="108" x="10" y="190"/><text fill="#334155" font-family="system-ui, -apple-system, &quot;Segoe UI&quot;, Roboto, sans-serif" font-size="12" font-weight="600" x="22" y="205">Integrations</text><g data-id="bridge" data-layer="item"><rect fill="#f8fafc" filter="url(#nl-0-root-shadow-subtle)" height="56" rx="4" ry="4" stroke="#94a3b8" stroke-width="1" width="68" x="457.4" y="190"/><circle cx="513.4" cy="202" fill="#94a3b8" r="5"/><text fill="#0f172a" font-family="system-ui, -apple-system, &quot;Segoe UI&quot;, Roboto, sans-serif" font-size="13" font-weight="600" x="531.4" y="210">Partner bridge</text><text fill="#94a3b8" font-family="system-ui, -apple-system, &quot;Segoe UI&quot;, Roboto, sans-serif" font-size="11" x="531.4" y="228">2w</text></g></g><g data-layer="include"><rect fill="#f8fafc" height="124" rx="8" ry="8" stroke="#94a3b8" stroke-dasharray="6 4" stroke-width="1" width="651.4" x="8" y="302"/><g data-id="plugin" data-layer="swimlane"><rect fill="#ffffff" height="96" stroke="#e2e8f0" stroke-width="1" width="667.4" x="0" y="316"/><rect fill="#f1f5f9" height="22" rx="4" ry="4" stroke="#cbd5e1" stroke-width="1" width="66" x="10" y="326"/><text fill="#334155" font-family="system-ui, -apple-system, &quot;Segoe UI&quot;, Roboto, sans-serif" font-size="12" font-weight="600" x="22" y="341">Plugin</text><g data-id="plugin-alpha" data-layer="item"><rect fill="#f8fafc" filter="url(#nl-0-root-shadow-subtle)" height="56" rx="4" ry="4" stroke="#94a3b8" stroke-width="1" width="148" x="257.4" y="326"/><circle cx="393.4" cy="338" fill="#94a3b8" r="5"/><text fill="#0f172a" font-family="system-ui, -apple-system, &quot;Segoe UI&quot;, Roboto, sans-serif" font-size="13" font-weight="600" x="269.4" y="346">Plugin alpha</text><text fill="#94a3b8" font-family="system-ui, -apple-system, &quot;Segoe UI&quot;, Roboto, sans-serif" font-size="11" x="269.4" y="364">4w</text></g><g data-id="plugin-beta" data-layer="item"><rect fill="#f8fafc" filter="url(#nl-0-root-shadow-subtle)" height="56" rx="4" ry="4" stroke="#94a3b8" stroke-width="1" width="68" x="417.4" y="326"/><circle cx="473.4" cy="338" fill="#94a3b8" r="5"/><text fill="#0f172a" font-family="system-ui, -apple-system, &quot;Segoe UI&quot;, Roboto, sans-serif" font-size="13" font-weight="600" x="491.4" y="346">Plugin beta</text><text fill="#94a3b8" font-family="system-ui, -apple-system, &quot;Segoe UI&quot;, Roboto, sans-serif" font-size="11" x="491.4" y="364">2w</text></g></g><rect fill="#ffffff" height="22" rx="4" ry="4" stroke="#cbd5e1" stroke-width="1" width="221.5" x="24" y="291"/><text fill="#0f172a" font-family="system-ui, -apple-system, &quot;Segoe UI&quot;, Roboto, sans-serif" font-size="11" font-weight="600" x="34" y="306">Partner - Vendor plugin roadmap</text><rect fill="#e2e8f0" height="18" rx="4" ry="4" stroke="#cbd5e1" stroke-width="1" width="18" x="251.5" y="293"/><path d="M256.5 304 L264.5 298 M260.5 298 L264.5 298 L264.5 302" fill="none" stroke="#475569" stroke-linecap="round" stroke-linejoin="round" stroke-width="1.4"/><text fill="#475569" font-family="ui-monospace, SFMono-Regular, Menlo, Consolas, monospace" font-size="9" x="275.5" y="306">/Users/gary/Projects/lolay/nowline/nowline-rendering/examples/partner.nowline</text></g><path d="M251.4 63 L297.4 63 Q301.4 63 301.4 67 L301.4 118 Q301.4 122 305.4 122 L311.4 122" fill="none" marker-end="url(#nl-arrow)" stroke="#475569" stroke-linejoin="round" stroke-width="1.1"/><path d="M311.4 122 L411.4 122" fill="none" marker-end="url(#nl-arrow)" stroke="#475569" stroke-linejoin="round" stroke-width="1.1"/><path d="M411.4 122 L477.4 122 Q481.4 122 481.4 126 L481.4 214 Q481.4 218 485.4 218 L491.4 218" fill="none" marker-end="url(#nl-arrow)" stroke="#475569" stroke-linejoin="round" stroke-width="1.1"/><line stroke="#64748b" stroke-dasharray="1 3" stroke-width="1" x1="251.4" x2="251.4" y1="70" y2="426"/><line stroke="#1e1b4b" stroke-dasharray="6 4" stroke-linecap="round" stroke-width="2" x1="531.4" x2="531.4" y1="70" y2="426"/><g data-id="kickoff" data-layer="anchor"><path d="M251.4 57 L257.4 63 L251.4 69 L245.4 63 Z" fill="#ffffff" stroke="#334155" stroke-width="1.25"/><text fill="#334155" font-family="system-ui, -apple-system, &quot;Segoe UI&quot;, Roboto, sans-serif" font-size="10" x="263.4" y="67">kickoff</text></g><g data-id="ga" data-layer="milestone"><path d="M531.4 57 L537.4 63 L531.4 69 L525.4 63 Z" fill="#0f172a" stroke="#0f172a" stroke-width="1"/><text fill="#0f172a" font-family="system-ui, -apple-system, &quot;Segoe UI&quot;, Roboto, sans-serif" font-size="10" font-weight="600" x="543.4" y="67">GA</text></g><g data-layer="nowline"><line stroke="#e53e3e" stroke-width="2.25" x1="579.4" x2="579.4" y1="26" y2="426"/><rect fill="#e53e3e" height="16" rx="8" ry="8" width="36" x="561.4" y="10"/><text fill="#ffffff" font-family="system-ui, -apple-system, &quot;Segoe UI&quot;, Roboto, sans-serif" font-size="10" font-weight="700" text-anchor="middle" x="579.4" y="22">now</text></g><g data-id="nl-0-root-header" data-layer="header"><rect fill="#ffffff" filter="url(#nl-0-root-shadow-subtle)" height="72" rx="6" ry="6" stroke="#e2e8f0" stroke-width="1" width="223.4" x="6" y="4"/><text fill="#0f172a" font-family="system-ui, -apple-system, &quot;Segoe UI&quot;, Roboto, sans-serif" font-size="16" font-weight="600" x="22" y="30">Primary Release</text><text fill="#64748b" font-family="system-ui, -apple-system, &quot;Segoe UI&quot;, Roboto, sans-serif" font-size="11" x="22" y="48">Core + Integrations + isolated</text><text fill="#64748b" font-family="system-ui, -apple-system, &quot;Segoe UI&quot;, Roboto, sans-serif" font-size="11" x="22" y="62">partner include</text></g><a aria-label="Made with Nowline" href="https://nowline.io" rel="noopener" target="_blank"><g data-layer="attribution"><g transform="translate(622.27 252.56) scale(0.22)"><text fill="#94a3b8" font-family="system-ui, -apple-system, &quot;Segoe UI&quot;, Roboto, sans-serif" font-size="40" font-weight="700" x="0" y="40">now</text><rect fill="#e53e3e" height="40" width="5" x="74" y="12"/><text fill="#94a3b8" font-family="system-ui, -apple-system, &quot;Segoe UI&quot;, Roboto, sans-serif" font-size="40" font-weight="400" x="81" y="40">ine</text></g></g></a></svg>