<svg data-generator="nowline" data-theme="light" height="901.44" viewBox="0 0 2259.76 901.44" width="2259.76" xmlns="http://www.w3.org/2000/svg"><defs><filter height="200%" id="nl-0-root-shadow-subtle" width="200%" x="-50%" y="-50%"><feGaussianBlur in="SourceAlpha" stdDeviation="1.5"/><feOffset dx="0" dy="1" result="offsetblur"/><feComponentTransfer><feFuncA type="linear" slope="0.2"/></feComponentTransfer><feMerge><feMergeNode/><feMergeNode in="SourceGraphic"/></feMerge></filter><filter height="200%" id="nl-0-root-shadow-fuzzy" width="200%" x="-50%" y="-50%"><feGaussianBlur in="SourceAlpha" stdDeviation="5"/><feOffset dx="0" dy="3" result="offsetblur"/><feComponentTransfer><feFuncA type="linear" slope="0.3"/></feComponentTransfer><feMerge><feMergeNode/><feMergeNode in="SourceGraphic"/></feMerge></filter><filter height="200%" id="nl-0-root-shadow-hard" width="200%" x="-50%" y="-50%"><feGaussianBlur in="SourceAlpha" stdDeviation="0"/><feOffset dx="2" dy="2" result="offsetblur"/><feComponentTransfer><feFuncA type="linear" slope="0.45"/></feComponentTransfer><feMerge><feMergeNode/><feMergeNode in="SourceGraphic"/></feMerge></filter><marker id="nl-arrow" viewBox="0 0 10 10" refX="9" refY="5" markerWidth="7" markerHeight="7" orient="auto"><path d="M 0 0 L 10 5 L 0 10 z" fill="#475569"/></marker><marker id="nl-arrow-light" viewBox="0 0 10 10" refX="9" refY="5" markerWidth="7" markerHeight="7" orient="auto"><path d="M 0 0 L 10 5 L 0 10 z" fill="#94a3b8"/></marker><marker id="nl-arrow-dark" viewBox="0 0 10 10" refX="9" refY="5" markerWidth="7" markerHeight="7" orient="auto"><path d="M 0 0 L 10 5 L 0 10 z" fill="#0f172a"/></marker></defs><rect fill="#f8fafc" height="901.44" width="2259.76" x="0" y="0"/><g data-layer="timeline"><rect fill="#ffffff" height="24" rx="4" ry="4" stroke="#e2e8f0" stroke-width="1" width="2040" x="207.76" y="32"/><rect fill="#ffffff" height="26" rx="4" ry="4" stroke="#e2e8f0" stroke-width="1" width="2040" x="207.76" y="56"/><rect fill="#ffffff" height="24" rx="4" ry="4" stroke="#e2e8f0" stroke-width="1" width="2040" x="207.76" y="842"/><text fill="#64748b" font-family="system-ui, -apple-system, &quot;Segoe UI&quot;, Roboto, sans-serif" font-size="10" text-anchor="middle" x="227.76" y="47">Jan 05</text><text fill="#64748b" font-family="system-ui, -apple-system, &quot;Segoe UI&quot;, Roboto, sans-serif" font-size="10" text-anchor="middle" x="227.76" y="857">Jan 05</text><text fill="#64748b" font-family="system-ui, -apple-system, &quot;Segoe UI&quot;, Roboto, sans-serif" font-size="10" text-anchor="middle" x="387.76" y="47">Jan 25</text><text fill="#64748b" font-family="system-ui, -apple-system, &quot;Segoe UI&quot;, Roboto, sans-serif" font-size="10" text-anchor="middle" x="387.76" y="857">Jan 25</text><text fill="#64748b" font-family="system-ui, -apple-system, &quot;Segoe UI&quot;, Roboto, sans-serif" font-size="10" text-anchor="middle" x="547.76" y="47">Feb 14</text><text fill="#64748b" font-family="system-ui, -apple-system, &quot;Segoe UI&quot;, Roboto, sans-serif" font-size="10" text-anchor="middle" x="547.76" y="857">Feb 14</text><text fill="#64748b" font-family="system-ui, -apple-system, &quot;Segoe UI&quot;, Roboto, sans-serif" font-size="10" text-anchor="middle" x="707.76" y="47">Mar 06</text><text fill="#64748b" font-family="system-ui, -apple-system, &quot;Segoe UI&quot;, Roboto, sans-serif" font-size="10" text-anchor="middle" x="707.76" y="857">Mar 06</text><text fill="#64748b" font-family="system-ui, -apple-system, &quot;Segoe UI&quot;, Roboto, sans-serif" font-size="10" text-anchor="middle" x="867.76" y="47">Mar 26</text><text fill="#64748b" font-family="system-ui, -apple-system, &quot;Segoe UI&quot;, Roboto, sans-serif" font-size="10" text-anchor="middle" x="867.76" y="857">Mar 26</text><text fill="#64748b" font-family="system-ui, -apple-system, &quot;Segoe UI&quot;, Roboto, sans-serif" font-size="10" text-anchor="middle" x="1027.76" y="47">Apr 15</text><text fill="#64748b" font-family="system-ui, -apple-system, &quot;Segoe UI&quot;, Roboto, sans-serif" font-size="10" text-anchor="middle" x="1027.76" y="857">Apr 15</text><text fill="#64748b" font-family="system-ui, -apple-system, &quot;Segoe UI&quot;, Roboto, sans-serif" font-size="10" text-anchor="middle" x="1187.76" y="47">May 05</text><text fill="#64748b" font-family="system-ui, -apple-system, &quot;Segoe UI&quot;, Roboto, sans-serif" font-size="10" text-anchor="middle" x="1187.76" y="857">May 05</text><text fill="#64748b" font-family="system-ui, -apple-system, &quot;Segoe UI&quot;, Roboto, sans-serif" font-size="10" text-anchor="middle" x="1347.76" y="47">May 25</text><text fill="#64748b" font-family="system-ui, -apple-system, &quot;Segoe UI&quot;, Roboto, sans-serif" font-size="10" text-anchor="middle" x="1347.76" y="857">May 25</text><text fill="#64748b" font-family="system-ui, -apple-system, &quot;Segoe UI&quot;, Roboto, sans-serif" font-size="10" text-anchor="middle" x="1507.76" y="47">Jun 14</text><text fill="#64748b" font-family="system-ui, -apple-system, &quot;Segoe UI&quot;, Roboto, sans-serif" font-size="10" text-anchor="middle" x="1507.76" y="857">Jun 14</text><text fill="#64748b" font-family="system-ui, -apple-system, &quot;Segoe UI&quot;, Roboto, sans-serif" font-size="10" text-anchor="middle" x="1667.76" y="47">Jul 04</text><text fill="#64748b" font-family="system-ui, -apple-system, &quot;Segoe UI&quot;, Roboto, sans-serif" font-size="10" text-anchor="middle" x="1667.76" y="857">Jul 04</text><text fill="#64748b" font-family="system-ui, -apple-system, &quot;Segoe UI&quot;, Roboto, sans-serif" font-size="10" text-anchor="middle" x="1827.76" y="47">Jul 24</text><text fill="#64748b" font-family="system-ui, -apple-system, &quot;Segoe UI&quot;, Roboto, sans-serif" font-size="10" text-anchor="middle" x="1827.76" y="857">Jul 24</text><text fill="#64748b" font-family="system-ui, -apple-system, &quot;Segoe UI&quot;, Roboto, sans-serif" font-size="10" text-anchor="middle" x="1987.76" y="47">Aug 13</text><text fill="#64748b" font-family="system-ui, -apple-system, &quot;Segoe UI&quot;, Roboto, sans-serif" font-size="10" text-anchor="middle" x="1987.76" y="857">Aug 13</text><text fill="#64748b" font-family="system-ui, -apple-system, &quot;Segoe UI&quot;, Roboto, sans-serif" font-size="10" text-anchor="middle" x="2147.76" y="47">Sep 02</text><text fill="#64748b" font-family="system-ui, -apple-system, &quot;Segoe UI&quot;, Roboto, sans-serif" font-size="10" text-anchor="middle" x="2147.76" y="857">Sep 02</text></g><g data-id="platform" data-layer="swimlane-bg"><rect fill="#ffffff" height="154" stroke="#e2e8f0" stroke-width="1" width="2259.76" x="0" y="90"/></g><g data-id="mobile" data-layer="swimlane-bg"><rect fill="#f8fafc" height="218" stroke="#e2e8f0" stroke-width="1" width="2259.76" x="0" y="244"/></g><g data-id="web" data-layer="swimlane-bg"><rect fill="#ffffff" height="154" stroke="#e2e8f0" stroke-width="1" width="2259.76" x="0" y="462"/></g><g data-id="data" data-layer="swimlane-bg"><rect fill="#f8fafc" height="218" stroke="#e2e8f0" stroke-width="1" width="2259.76" x="0" y="616"/></g><g data-layer="grid"><line stroke="#cbd5e1" stroke-width="1" x1="207.76" x2="207.76" y1="32" y2="866"/><line stroke="#e2e8f0" stroke-width="1" x1="247.76" x2="247.76" y1="90" y2="834"/><line stroke="#e2e8f0" stroke-width="1" x1="287.76" x2="287.76" y1="90" y2="834"/><line stroke="#e2e8f0" stroke-width="1" x1="327.76" x2="327.76" y1="90" y2="834"/><line stroke="#cbd5e1" stroke-width="1" x1="367.76" x2="367.76" y1="32" y2="866"/><line stroke="#e2e8f0" stroke-width="1" x1="407.76" x2="407.76" y1="90" y2="834"/><line stroke="#e2e8f0" stroke-width="1" x1="447.76" x2="447.76" y1="90" y2="834"/><line stroke="#e2e8f0" stroke-width="1" x1="487.76" x2="487.76" y1="90" y2="834"/><line stroke="#cbd5e1" stroke-width="1" x1="527.76" x2="527.76" y1="32" y2="866"/><line stroke="#e2e8f0" stroke-width="1" x1="567.76" x2="567.76" y1="90" y2="834"/><line stroke="#e2e8f0" stroke-width="1" x1="607.76" x2="607.76" y1="90" y2="834"/><line stroke="#e2e8f0" stroke-width="1" x1="647.76" x2="647.76" y1="90" y2="834"/><line stroke="#cbd5e1" stroke-width="1" x1="687.76" x2="687.76" y1="32" y2="866"/><line stroke="#e2e8f0" stroke-width="1" x1="727.76" x2="727.76" y1="90" y2="834"/><line stroke="#e2e8f0" stroke-width="1" x1="767.76" x2="767.76" y1="90" y2="834"/><line stroke="#e2e8f0" stroke-width="1" x1="807.76" x2="807.76" y1="90" y2="834"/><line stroke="#cbd5e1" stroke-width="1" x1="847.76" x2="847.76" y1="32" y2="866"/><line stroke="#e2e8f0" stroke-width="1" x1="887.76" x2="887.76" y1="90" y2="834"/><line stroke="#e2e8f0" stroke-width="1" x1="927.76" x2="927.76" y1="90" y2="834"/><line stroke="#e2e8f0" stroke-width="1" x1="967.76" x2="967.76" y1="90" y2="834"/><line stroke="#cbd5e1" stroke-width="1" x1="1007.76" x2="1007.76" y1="32" y2="866"/><line stroke="#e2e8f0" stroke-width="1" x1="1047.76" x2="1047.76" y1="90" y2="834"/><line stroke="#e2e8f0" stroke-width="1" x1="1087.76" x2="1087.76" y1="90" y2="834"/><line stroke="#e2e8f0" stroke-width="1" x1="1127.76" x2="1127.76" y1="90" y2="834"/><line stroke="#cbd5e1" stroke-width="1" x1="1167.76" x2="1167.76" y1="32" y2="866"/><line stroke="#e2e8f0" stroke-width="1" x1="1207.76" x2="1207.76" y1="90" y2="834"/><line stroke="#e2e8f0" stroke-width="1" x1="1247.76" x2="1247.76" y1="90" y2="834"/><line stroke="#e2e8f0" stroke-width="1" x1="1287.76" x2="1287.76" y1="90" y2="834"/><line stroke="#cbd5e1" stroke-width="1" x1="1327.76" x2="1327.76" y1="32" y2="866"/><line stroke="#e2e8f0" stroke-width="1" x1="1367.76" x2="1367.76" y1="90" y2="834"/><line stroke="#e2e8f0" stroke-width="1" x1="1407.76" x2="1407.76" y1="90" y2="834"/><line stroke="#e2e8f0" stroke-width="1" x1="1447.76" x2="1447.76" y1="90" y2="834"/><line stroke="#cbd5e1" stroke-width="1" x1="1487.76" x2="1487.76" y1="32" y2="866"/><line stroke="#e2e8f0" stroke-width="1" x1="1527.76" x2="1527.76" y1="90" y2="834"/><line stroke="#e2e8f0" stroke-width="1" x1="1567.76" x2="1567.76" y1="90" y2="834"/><line stroke="#e2e8f0" stroke-width="1" x1="1607.76" x2="1607.76" y1="90" y2="834"/><line stroke="#cbd5e1" stroke-width="1" x1="1647.76" x2="1647.76" y1="32" y2="866"/><line stroke="#e2e8f0" stroke-width="1" x1="1687.76" x2="1687.76" y1="90" y2="834"/><line stroke="#e2e8f0" stroke-width="1" x1="1727.76" x2="1727.76" y1="90" y2="834"/><line stroke="#e2e8f0" stroke-width="1" x1="1767.76" x2="1767.76" y1="90" y2="834"/><line stroke="#cbd5e1" stroke-width="1" x1="1807.76" x2="1807.76" y1="32" y2="866"/><line stroke="#e2e8f0" stroke-width="1" x1="1847.76" x2="1847.76" y1="90" y2="834"/><line stroke="#e2e8f0" stroke-width="1" x1="1887.76" x2="1887.76" y1="90" y2="834"/><line stroke="#e2e8f0" stroke-width="1" x1="1927.76" x2="1927.76" y1="90" y2="834"/><line stroke="#cbd5e1" stroke-width="1" x1="1967.76" x2="1967.76" y1="32" y2="866"/><line stroke="#e2e8f0" stroke-width="1" x1="2007.76" x2="2007.76" y1="90" y2="834"/><line stroke="#e2e8f0" stroke-width="1" x1="2047.76" x2="2047.76" y1="90" y2="834"/><line stroke="#e2e8f0" stroke-width="1" x1="2087.76" x2="2087.76" y1="90" y2="834"/><line stroke="#cbd5e1" stroke-width="1" x1="2127.76" x2="2127.76" y1="32" y2="866"/><line stroke="#e2e8f0" stroke-width="1" x1="2167.76" x2="2167.76" y1="90" y2="834"/><line stroke="#e2e8f0" stroke-width="1" x1="2207.76" x2="2207.76" y1="90" y2="834"/></g><g data-id="platform" data-layer="swimlane"><rect fill="#f1f5f9" height="22" rx="4" ry="4" stroke="#cbd5e1" stroke-width="1" width="80" x="10" y="100"/><text fill="#334155" font-family="system-ui, -apple-system, &quot;Segoe UI&quot;, Roboto, sans-serif" font-size="12" font-weight="600" x="22" y="115">Platform</text><g data-id="platform-api" data-layer="item"><rect fill="#eff6ff" filter="url(#nl-0-root-shadow-subtle)" height="56" rx="4" ry="4" stroke="#3b82f6" stroke-width="1" width="164" x="221.76" y="100"/><rect fill="#3b82f6" height="4" opacity="0.55" width="65.6" x="221.76" y="152"/><circle cx="373.76" cy="112" fill="#1e3a8a" r="5"/><text fill="#0f172a" font-family="system-ui, -apple-system, &quot;Segoe UI&quot;, Roboto, sans-serif" font-size="13" font-weight="600" x="233.76" y="120">API gateway</text><text fill="#3b82f6" font-family="system-ui, -apple-system, &quot;Segoe UI&quot;, Roboto, sans-serif" font-size="11" x="233.76" y="138">1m — 60% remaining</text></g><g data-id="platform-eventing" data-layer="item"><rect fill="#f8fafc" filter="url(#nl-0-root-shadow-subtle)" height="56" rx="4" ry="4" stroke="#94a3b8" stroke-width="1" width="68" x="397.76" y="100"/><circle cx="453.76" cy="112" fill="#334155" r="5"/><text fill="#0f172a" font-family="system-ui, -apple-system, &quot;Segoe UI&quot;, Roboto, sans-serif" font-size="13" font-weight="600" x="471.76" y="120">Eventing layer</text><text fill="#0f172a" font-family="system-ui, -apple-system, &quot;Segoe UI&quot;, Roboto, sans-serif" font-size="11" x="471.76" y="138">2w</text></g><g data-id="platform-search" data-layer="item"><rect fill="#f8fafc" filter="url(#nl-0-root-shadow-subtle)" height="56" rx="4" ry="4" stroke="#94a3b8" stroke-width="1" width="68" x="477.76" y="164"/><circle cx="533.76" cy="176" fill="#334155" r="5"/><text fill="#0f172a" font-family="system-ui, -apple-system, &quot;Segoe UI&quot;, Roboto, sans-serif" font-size="13" font-weight="600" x="551.76" y="184">Search v2</text><text fill="#0f172a" font-family="system-ui, -apple-system, &quot;Segoe UI&quot;, Roboto, sans-serif" font-size="11" x="551.76" y="202">2w</text></g></g><g data-id="mobile" data-layer="swimlane"><rect fill="#f1f5f9" height="22" rx="4" ry="4" stroke="#cbd5e1" stroke-width="1" width="66" x="10" y="254"/><text fill="#334155" font-family="system-ui, -apple-system, &quot;Segoe UI&quot;, Roboto, sans-serif" font-size="12" font-weight="600" x="22" y="269">Mobile</text><g data-id="mobile-ios" data-layer="item"><rect fill="#f8fafc" filter="url(#nl-0-root-shadow-subtle)" height="56" rx="4" ry="4" stroke="#94a3b8" stroke-width="1" width="68" x="397.76" y="254"/><circle cx="453.76" cy="266" fill="#334155" r="5"/><text fill="#0f172a" font-family="system-ui, -apple-system, &quot;Segoe UI&quot;, Roboto, sans-serif" font-size="13" font-weight="600" x="471.76" y="274">iOS shell refresh</text><text fill="#0f172a" font-family="system-ui, -apple-system, &quot;Segoe UI&quot;, Roboto, sans-serif" font-size="11" x="471.76" y="292">2w</text></g><g data-id="mobile-android" data-layer="item"><rect fill="#f8fafc" filter="url(#nl-0-root-shadow-subtle)" height="56" rx="4" ry="4" stroke="#94a3b8" stroke-width="1" width="68" x="477.76" y="318"/><circle cx="533.76" cy="330" fill="#334155" r="5"/><text fill="#0f172a" font-family="system-ui, -apple-system, &quot;Segoe UI&quot;, Roboto, sans-serif" font-size="13" font-weight="600" x="551.76" y="338">Android parity</text><text fill="#0f172a" font-family="system-ui, -apple-system, &quot;Segoe UI&quot;, Roboto, sans-serif" font-size="11" x="551.76" y="356">2w</text></g><g data-id="mobile-offline" data-layer="item"><rect fill="#f8fafc" filter="url(#nl-0-root-shadow-subtle)" height="56" rx="4" ry="4" stroke="#94a3b8" stroke-width="1" width="28" x="557.76" y="382"/><circle cx="573.76" cy="394" fill="#334155" r="5"/><text fill="#0f172a" font-family="system-ui, -apple-system, &quot;Segoe UI&quot;, Roboto, sans-serif" font-size="13" font-weight="600" x="591.76" y="402">Offline mode</text><text fill="#0f172a" font-family="system-ui, -apple-system, &quot;Segoe UI&quot;, Roboto, sans-serif" font-size="11" x="591.76" y="420">1w</text></g></g><g data-id="web" data-layer="swimlane"><rect fill="#f1f5f9" height="22" rx="4" ry="4" stroke="#cbd5e1" stroke-width="1" width="64" x="10" y="472"/><text fill="#334155" font-family="system-ui, -apple-system, &quot;Segoe UI&quot;, Roboto, sans-serif" font-size="12" font-weight="600" x="22" y="487">Web</text><g data-id="web-redesign" data-layer="item"><rect fill="#f8fafc" filter="url(#nl-0-root-shadow-subtle)" height="56" rx="4" ry="4" stroke="#94a3b8" stroke-width="1" width="164" x="221.76" y="472"/><circle cx="373.76" cy="484" fill="#334155" r="5"/><text fill="#0f172a" font-family="system-ui, -apple-system, &quot;Segoe UI&quot;, Roboto, sans-serif" font-size="13" font-weight="600" x="233.76" y="492">Web redesign</text><text fill="#94a3b8" font-family="system-ui, -apple-system, &quot;Segoe UI&quot;, Roboto, sans-serif" font-size="11" x="233.76" y="510">1m</text></g><g data-id="web-billing" data-layer="item"><rect fill="#f8fafc" filter="url(#nl-0-root-shadow-subtle)" height="56" rx="4" ry="4" stroke="#94a3b8" stroke-width="1" width="28" x="397.76" y="472"/><circle cx="413.76" cy="484" fill="#334155" r="5"/><text fill="#0f172a" font-family="system-ui, -apple-system, &quot;Segoe UI&quot;, Roboto, sans-serif" font-size="13" font-weight="600" x="431.76" y="492">Billing portal</text><text fill="#0f172a" font-family="system-ui, -apple-system, &quot;Segoe UI&quot;, Roboto, sans-serif" font-size="11" x="431.76" y="510">1w</text></g><g data-id="web-admin" data-layer="item"><rect fill="#f8fafc" filter="url(#nl-0-root-shadow-subtle)" height="56" rx="4" ry="4" stroke="#94a3b8" stroke-width="1" width="68" x="437.76" y="536"/><circle cx="493.76" cy="548" fill="#334155" r="5"/><text fill="#0f172a" font-family="system-ui, -apple-system, &quot;Segoe UI&quot;, Roboto, sans-serif" font-size="13" font-weight="600" x="511.76" y="556">Admin console v2</text><text fill="#0f172a" font-family="system-ui, -apple-system, &quot;Segoe UI&quot;, Roboto, sans-serif" font-size="11" x="511.76" y="574">2w</text></g></g><g data-id="data" data-layer="swimlane"><rect fill="#f1f5f9" height="22" rx="4" ry="4" stroke="#cbd5e1" stroke-width="1" width="64" x="10" y="626"/><text fill="#334155" font-family="system-ui, -apple-system, &quot;Segoe UI&quot;, Roboto, sans-serif" font-size="12" font-weight="600" x="22" y="641">Data</text><g data-id="data-warehouse" data-layer="item"><rect fill="#f8fafc" filter="url(#nl-0-root-shadow-subtle)" height="56" rx="4" ry="4" stroke="#94a3b8" stroke-width="1" width="68" x="221.76" y="626"/><circle cx="277.76" cy="638" fill="#334155" r="5"/><text fill="#0f172a" font-family="system-ui, -apple-system, &quot;Segoe UI&quot;, Roboto, sans-serif" font-size="13" font-weight="600" x="295.76" y="646">Warehouse upgrade</text><text fill="#0f172a" font-family="system-ui, -apple-system, &quot;Segoe UI&quot;, Roboto, sans-serif" font-size="11" x="295.76" y="664">2w</text></g><g data-id="data-pipelines" data-layer="item"><rect fill="#f8fafc" filter="url(#nl-0-root-shadow-subtle)" height="56" rx="4" ry="4" stroke="#94a3b8" stroke-width="1" width="68" x="301.76" y="690"/><circle cx="357.76" cy="702" fill="#334155" r="5"/><text fill="#0f172a" font-family="system-ui, -apple-system, &quot;Segoe UI&quot;, Roboto, sans-serif" font-size="13" font-weight="600" x="375.76" y="710">Pipeline refactor</text><text fill="#0f172a" font-family="system-ui, -apple-system, &quot;Segoe UI&quot;, Roboto, sans-serif" font-size="11" x="375.76" y="728">2w</text></g><g data-id="data-bi" data-layer="item"><rect fill="#f8fafc" filter="url(#nl-0-root-shadow-subtle)" height="56" rx="4" ry="4" stroke="#94a3b8" stroke-width="1" width="28" x="381.76" y="754"/><circle cx="397.76" cy="766" fill="#334155" r="5"/><text fill="#0f172a" font-family="system-ui, -apple-system, &quot;Segoe UI&quot;, Roboto, sans-serif" font-size="13" font-weight="600" x="415.76" y="774">BI dashboards</text><text fill="#0f172a" font-family="system-ui, -apple-system, &quot;Segoe UI&quot;, Roboto, sans-serif" font-size="11" x="415.76" y="792">1w</text></g></g><path d="M215.76 128 L221.76 128" fill="none" marker-end="url(#nl-arrow)" stroke="#475569" stroke-linejoin="round" stroke-width="1.1"/><path d="M385.76 128 L388.76 128 Q391.76 128 391.76 131 L391.76 279 Q391.76 282 394.76 282 L397.76 282" fill="none" marker-end="url(#nl-arrow)" stroke="#475569" stroke-linejoin="round" stroke-width="1.1"/><path d="M465.76 308 L468.76 308 Q471.76 308 471.76 311 L471.76 343 Q471.76 346 474.76 346 L477.76 346" fill="none" marker-end="url(#nl-arrow)" stroke="#475569" stroke-linejoin="round" stroke-width="1.1"/><path d="M215.76 500 L221.76 500" fill="none" marker-end="url(#nl-arrow)" stroke="#475569" stroke-linejoin="round" stroke-width="1.1"/><path d="M215.76 654 L221.76 654" fill="none" marker-end="url(#nl-arrow)" stroke="#475569" stroke-linejoin="round" stroke-width="1.1"/><path d="M289.76 680 L292.76 680 Q295.76 680 295.76 683 L295.76 715 Q295.76 718 298.76 718 L301.76 718" fill="none" marker-end="url(#nl-arrow)" stroke="#475569" stroke-linejoin="round" stroke-width="1.1"/><line stroke="#64748b" stroke-dasharray="1 3" stroke-width="1" x1="215.76" x2="215.76" y1="76" y2="834"/><line stroke="#1e1b4b" stroke-dasharray="6 4" stroke-linecap="round" stroke-width="2" x1="2223.76" x2="2223.76" y1="76" y2="834"/><g data-id="kickoff" data-layer="anchor"><path d="M215.76 63 L221.76 69 L215.76 75 L209.76 69 Z" fill="#ffffff" stroke="#334155" stroke-width="1.25"/><text fill="#334155" font-family="system-ui, -apple-system, &quot;Segoe UI&quot;, Roboto, sans-serif" font-size="10" x="227.76" y="73">kickoff</text></g><g data-id="gtm-launch" data-layer="milestone"><path d="M2223.76 63 L2229.76 69 L2223.76 75 L2217.76 69 Z" fill="#0f172a" stroke="#0f172a" stroke-width="1"/><text fill="#0f172a" font-family="system-ui, -apple-system, &quot;Segoe UI&quot;, Roboto, sans-serif" font-size="10" font-weight="600" text-anchor="end" x="2211.76" y="73">GTM Launch</text></g><g data-layer="nowline"><line stroke="#e53e3e" stroke-width="2.25" x1="487.76" x2="487.76" y1="32" y2="866"/><rect fill="#e53e3e" height="16" rx="8" ry="8" width="36" x="469.76" y="16"/><text fill="#ffffff" font-family="system-ui, -apple-system, &quot;Segoe UI&quot;, Roboto, sans-serif" font-size="10" font-weight="700" text-anchor="middle" x="487.76" y="28">now</text></g><g data-id="nl-0-root-header" data-layer="header"><rect fill="#ffffff" filter="url(#nl-0-root-shadow-subtle)" height="78" rx="6" ry="6" stroke="#e2e8f0" stroke-width="1" width="189.76" x="6" y="4"/><text fill="#0f172a" font-family="system-ui, -apple-system, &quot;Segoe UI&quot;, Roboto, sans-serif" font-size="16" font-weight="600" x="22" y="30">Bottom Timeline +</text><text fill="#0f172a" font-family="system-ui, -apple-system, &quot;Segoe UI&quot;, Roboto, sans-serif" font-size="16" font-weight="600" x="22" y="50">Minor Grid</text><text fill="#64748b" font-family="system-ui, -apple-system, &quot;Segoe UI&quot;, Roboto, sans-serif" font-size="11" x="22" y="68">Acme Platform</text></g><a aria-label="Powered by nowline" href="https://nowline.io" rel="noopener" target="_blank"><g data-layer="attribution"><g transform="translate(2171.6 878) scale(0.22)"><text fill="#94a3b8" font-family="system-ui, -apple-system, &quot;Segoe UI&quot;, Roboto, sans-serif" font-size="32" font-weight="400" x="0" y="40">Powered by</text><text fill="#94a3b8" font-family="system-ui, -apple-system, &quot;Segoe UI&quot;, Roboto, sans-serif" font-size="40" font-weight="700" x="195.6" y="40">now</text><rect fill="#e53e3e" height="40" width="5" x="269.6" y="12"/><text fill="#94a3b8" font-family="system-ui, -apple-system, &quot;Segoe UI&quot;, Roboto, sans-serif" font-size="40" font-weight="400" x="276.6" y="40">ine</text></g></g></a></svg>