<svg data-generator="nowline" data-theme="light" height="705.44" viewBox="0 0 742.64 705.44" width="742.64" xmlns="http://www.w3.org/2000/svg"><defs><filter height="200%" id="nl-0-root-shadow-subtle" width="200%" x="-50%" y="-50%"><feGaussianBlur in="SourceAlpha" stdDeviation="1.5"/><feOffset dx="0" dy="1" result="offsetblur"/><feComponentTransfer><feFuncA type="linear" slope="0.2"/></feComponentTransfer><feMerge><feMergeNode/><feMergeNode in="SourceGraphic"/></feMerge></filter><filter height="200%" id="nl-0-root-shadow-fuzzy" width="200%" x="-50%" y="-50%"><feGaussianBlur in="SourceAlpha" stdDeviation="5"/><feOffset dx="0" dy="3" result="offsetblur"/><feComponentTransfer><feFuncA type="linear" slope="0.3"/></feComponentTransfer><feMerge><feMergeNode/><feMergeNode in="SourceGraphic"/></feMerge></filter><filter height="200%" id="nl-0-root-shadow-hard" width="200%" x="-50%" y="-50%"><feGaussianBlur in="SourceAlpha" stdDeviation="0"/><feOffset dx="2" dy="2" result="offsetblur"/><feComponentTransfer><feFuncA type="linear" slope="0.45"/></feComponentTransfer><feMerge><feMergeNode/><feMergeNode in="SourceGraphic"/></feMerge></filter><marker id="nl-arrow" viewBox="0 0 10 10" refX="9" refY="5" markerWidth="7" markerHeight="7" orient="auto"><path d="M 0 0 L 10 5 L 0 10 z" fill="#475569"/></marker><marker id="nl-arrow-light" viewBox="0 0 10 10" refX="9" refY="5" markerWidth="7" markerHeight="7" orient="auto"><path d="M 0 0 L 10 5 L 0 10 z" fill="#94a3b8"/></marker><marker id="nl-arrow-dark" viewBox="0 0 10 10" refX="9" refY="5" markerWidth="7" markerHeight="7" orient="auto"><path d="M 0 0 L 10 5 L 0 10 z" fill="#0f172a"/></marker></defs><rect fill="#f8fafc" height="705.44" width="742.64" x="0" y="0"/><g data-layer="timeline"><rect fill="#ffffff" height="24" rx="4" ry="4" stroke="#e2e8f0" stroke-width="1" width="560" x="170.64" y="24"/><rect fill="#ffffff" height="26" rx="4" ry="4" stroke="#e2e8f0" stroke-width="1" width="560" x="170.64" y="48"/><text fill="#64748b" font-family="system-ui, -apple-system, &quot;Segoe UI&quot;, Roboto, sans-serif" font-size="10" text-anchor="middle" x="190.64" y="39">Jan 05</text><line stroke="#e2e8f0" stroke-dasharray="2 3" stroke-width="1" x1="170.64" x2="170.64" y1="74" y2="574"/><text fill="#64748b" font-family="system-ui, -apple-system, &quot;Segoe UI&quot;, Roboto, sans-serif" font-size="10" text-anchor="middle" x="230.64" y="39">Jan 10</text><line stroke="#e2e8f0" stroke-dasharray="2 3" stroke-width="1" x1="210.64" x2="210.64" y1="74" y2="574"/><text fill="#64748b" font-family="system-ui, -apple-system, &quot;Segoe UI&quot;, Roboto, sans-serif" font-size="10" text-anchor="middle" x="270.64" y="39">Jan 15</text><line stroke="#e2e8f0" stroke-dasharray="2 3" stroke-width="1" x1="250.64" x2="250.64" y1="74" y2="574"/><text fill="#64748b" font-family="system-ui, -apple-system, &quot;Segoe UI&quot;, Roboto, sans-serif" font-size="10" text-anchor="middle" x="310.64" y="39">Jan 20</text><line stroke="#e2e8f0" stroke-dasharray="2 3" stroke-width="1" x1="290.64" x2="290.64" y1="74" y2="574"/><text fill="#64748b" font-family="system-ui, -apple-system, &quot;Segoe UI&quot;, Roboto, sans-serif" font-size="10" text-anchor="middle" x="350.64" y="39">Jan 25</text><line stroke="#e2e8f0" stroke-dasharray="2 3" stroke-width="1" x1="330.64" x2="330.64" y1="74" y2="574"/><text fill="#64748b" font-family="system-ui, -apple-system, &quot;Segoe UI&quot;, Roboto, sans-serif" font-size="10" text-anchor="middle" x="390.64" y="39">Jan 30</text><line stroke="#e2e8f0" stroke-dasharray="2 3" stroke-width="1" x1="370.64" x2="370.64" y1="74" y2="574"/><text fill="#64748b" font-family="system-ui, -apple-system, &quot;Segoe UI&quot;, Roboto, sans-serif" font-size="10" text-anchor="middle" x="430.64" y="39">Feb 04</text><line stroke="#e2e8f0" stroke-dasharray="2 3" stroke-width="1" x1="410.64" x2="410.64" y1="74" y2="574"/><text fill="#64748b" font-family="system-ui, -apple-system, &quot;Segoe UI&quot;, Roboto, sans-serif" font-size="10" text-anchor="middle" x="470.64" y="39">Feb 09</text><line stroke="#e2e8f0" stroke-dasharray="2 3" stroke-width="1" x1="450.64" x2="450.64" y1="74" y2="574"/><text fill="#64748b" font-family="system-ui, -apple-system, &quot;Segoe UI&quot;, Roboto, sans-serif" font-size="10" text-anchor="middle" x="510.64" y="39">Feb 14</text><line stroke="#e2e8f0" stroke-dasharray="2 3" stroke-width="1" x1="490.64" x2="490.64" y1="74" y2="574"/><text fill="#64748b" font-family="system-ui, -apple-system, &quot;Segoe UI&quot;, Roboto, sans-serif" font-size="10" text-anchor="middle" x="550.64" y="39">Feb 19</text><line stroke="#e2e8f0" stroke-dasharray="2 3" stroke-width="1" x1="530.64" x2="530.64" y1="74" y2="574"/><text fill="#64748b" font-family="system-ui, -apple-system, &quot;Segoe UI&quot;, Roboto, sans-serif" font-size="10" text-anchor="middle" x="590.64" y="39">Feb 24</text><line stroke="#e2e8f0" stroke-dasharray="2 3" stroke-width="1" x1="570.64" x2="570.64" y1="74" y2="574"/><text fill="#64748b" font-family="system-ui, -apple-system, &quot;Segoe UI&quot;, Roboto, sans-serif" font-size="10" text-anchor="middle" x="630.64" y="39">Mar 01</text><line stroke="#e2e8f0" stroke-dasharray="2 3" stroke-width="1" x1="610.64" x2="610.64" y1="74" y2="574"/><text fill="#64748b" font-family="system-ui, -apple-system, &quot;Segoe UI&quot;, Roboto, sans-serif" font-size="10" text-anchor="middle" x="670.64" y="39">Mar 06</text><line stroke="#e2e8f0" stroke-dasharray="2 3" stroke-width="1" x1="650.64" x2="650.64" y1="74" y2="574"/><text fill="#64748b" font-family="system-ui, -apple-system, &quot;Segoe UI&quot;, Roboto, sans-serif" font-size="10" text-anchor="middle" x="710.64" y="39">Mar 11</text><line stroke="#e2e8f0" stroke-dasharray="2 3" stroke-width="1" x1="690.64" x2="690.64" y1="74" y2="574"/><line stroke="#e2e8f0" stroke-dasharray="2 3" stroke-width="1" x1="730.64" x2="730.64" y1="74" y2="574"/></g><g data-id="platform" data-layer="swimlane"><rect fill="#ffffff" height="310" stroke="#e2e8f0" stroke-width="1" width="742.64" x="0" y="82"/><rect fill="#f1f5f9" height="22" rx="4" ry="4" stroke="#cbd5e1" stroke-width="1" width="192" x="10" y="92"/><text fill="#334155" font-family="system-ui, -apple-system, &quot;Segoe UI&quot;, Roboto, sans-serif" font-size="12" font-weight="600" x="22" y="107">Platform</text><text fill="#64748b" font-family="system-ui, -apple-system, &quot;Segoe UI&quot;, Roboto, sans-serif" font-size="10" x="78" y="107">owner: Platform Team</text><text fill="#dc2626" font-family="system-ui, -apple-system, &quot;Segoe UI&quot;, Roboto, sans-serif" font-size="10" font-weight="700" text-anchor="end" x="194" y="106">1</text><g data-id="auth-refactor" data-layer="item"><rect fill="#1e88e5" filter="url(#nl-0-root-shadow-subtle)" height="56" rx="4" ry="4" stroke="#10b981" stroke-width="1" width="68" x="176.64" y="120"/><rect fill="#10b981" height="4" opacity="0.55" width="68" x="176.64" y="172"/><circle cx="232.64" cy="132" fill="#10b981" r="5"/><text fill="#ffffff" font-family="system-ui, -apple-system, &quot;Segoe UI&quot;, Roboto, sans-serif" font-size="13" font-weight="600" x="250.64" y="140">Auth refactor</text><text fill="#10b981" font-family="system-ui, -apple-system, &quot;Segoe UI&quot;, Roboto, sans-serif" font-size="11" x="250.64" y="158">Sam Chen</text><a href="https://linear.app/acme/issue/ENG-123" rel="noopener" target="_blank"><rect fill="#5e6ad2" height="14" rx="2" ry="2" width="14" x="224.64" y="156"/><path d="M228.64 166 L234.64 160 M230.64 160 H234.64 V164" fill="none" stroke="#ffffff" stroke-linecap="round" stroke-linejoin="round" stroke-width="1.1"/></a><rect fill="#1e88e5" height="13" rx="6.5" ry="6.5" stroke="#475569" stroke-width="0.5" width="44" x="188.64" y="156"/><text fill="#ffffff" font-family="system-ui, -apple-system, &quot;Segoe UI&quot;, Roboto, sans-serif" font-size="10" font-style="normal" font-weight="400" text-anchor="middle" x="210.64" y="165.5">enterprise</text></g><g data-layer="parallel"><g data-id="audit-track" data-layer="group"><rect fill="#fb8c00" fill-opacity="0.18" filter="url(#nl-0-root-shadow-subtle)" height="68" rx="6" ry="6" stroke="#475569" stroke-width="1" width="136" x="242.64" y="182"/><rect fill="#475569" height="16" rx="3" ry="3" width="77" x="250.64" y="173"/><text fill="#ffffff" font-family="system-ui, -apple-system, &quot;Segoe UI&quot;, Roboto, sans-serif" font-size="9" font-weight="600" text-anchor="middle" x="289.14" y="184">Audit Track</text><g data-id="audit-log" data-layer="item"><rect fill="#1e88e5" filter="url(#nl-0-root-shadow-subtle)" height="56" rx="4" ry="4" stroke="#3b82f6" stroke-width="1" width="68" x="256.64" y="184"/><rect fill="#3b82f6" height="4" opacity="0.55" width="47.6" x="256.64" y="236"/><circle cx="312.64" cy="196" fill="#3b82f6" r="5"/><text fill="#ffffff" font-family="system-ui, -apple-system, &quot;Segoe UI&quot;, Roboto, sans-serif" font-size="13" font-weight="600" x="330.64" y="204">Audit log v2</text><text fill="#3b82f6" font-family="system-ui, -apple-system, &quot;Segoe UI&quot;, Roboto, sans-serif" font-size="11" x="330.64" y="222">2w — 30% remaining</text><text fill="#dc2626" font-family="system-ui, -apple-system, &quot;Segoe UI&quot;, Roboto, sans-serif" font-size="10" font-weight="700" text-anchor="end" x="302.64" y="198">2</text><a href="https://wiki.acme.com/audit" rel="noopener" target="_blank"><rect fill="#0f172a" height="14" rx="2" ry="2" width="14" x="304.64" y="220"/><path d="M308.64 230 L314.64 224 M310.64 224 H314.64 V228" fill="none" stroke="#ffffff" stroke-linecap="round" stroke-linejoin="round" stroke-width="1.1"/></a><rect fill="#1e88e5" height="13" rx="6.5" ry="6.5" stroke="#475569" stroke-width="0.5" width="44" x="268.64" y="220"/><text fill="#ffffff" font-family="system-ui, -apple-system, &quot;Segoe UI&quot;, Roboto, sans-serif" font-size="10" font-style="normal" font-weight="400" text-anchor="middle" x="290.64" y="229.5">enterprise</text></g><g data-id="audit-ui" data-layer="item"><rect fill="#f8fafc" filter="url(#nl-0-root-shadow-subtle)" height="56" rx="4" ry="4" stroke="#94a3b8" stroke-width="1" width="28" x="336.64" y="184"/><circle cx="352.64" cy="196" fill="#94a3b8" r="5"/><text fill="#0f172a" font-family="system-ui, -apple-system, &quot;Segoe UI&quot;, Roboto, sans-serif" font-size="13" font-weight="600" x="370.64" y="204">Audit UI</text><text fill="#94a3b8" font-family="system-ui, -apple-system, &quot;Segoe UI&quot;, Roboto, sans-serif" font-size="11" x="370.64" y="222">1w</text></g></g><g data-id="sso" data-layer="item"><rect fill="#1e88e5" filter="url(#nl-0-root-shadow-subtle)" height="56" rx="4" ry="4" stroke="#fb8c00" stroke-dasharray="4 3" stroke-width="1" width="28" x="256.64" y="248"/><circle cx="272.64" cy="260" fill="#94a3b8" r="5"/><text fill="#ffffff" font-family="system-ui, -apple-system, &quot;Segoe UI&quot;, Roboto, sans-serif" font-size="13" font-weight="600" x="290.64" y="268">SSO plugins</text><text fill="#fb8c00" font-family="system-ui, -apple-system, &quot;Segoe UI&quot;, Roboto, sans-serif" font-size="11" x="290.64" y="286">1w</text><rect fill="#1e88e5" height="13" rx="6.5" ry="6.5" stroke="#475569" stroke-width="0.5" width="8" x="268.64" y="284"/><text fill="#ffffff" font-family="system-ui, -apple-system, &quot;Segoe UI&quot;, Roboto, sans-serif" font-size="10" font-style="normal" font-weight="400" text-anchor="middle" x="272.64" y="293.5">enterprise</text></g></g><g data-id="platform-qa" data-layer="item"><rect fill="#f8fafc" filter="url(#nl-0-root-shadow-subtle)" height="56" rx="4" ry="4" stroke="#94a3b8" stroke-width="1" width="28" x="384.64" y="312"/><circle cx="400.64" cy="324" fill="#94a3b8" r="5"/><text fill="#0f172a" font-family="system-ui, -apple-system, &quot;Segoe UI&quot;, Roboto, sans-serif" font-size="13" font-weight="600" x="418.64" y="332">Platform QA</text><text fill="#94a3b8" font-family="system-ui, -apple-system, &quot;Segoe UI&quot;, Roboto, sans-serif" font-size="11" x="418.64" y="350">1w</text></g></g><g data-id="mobile" data-layer="swimlane"><rect fill="#f8fafc" height="182" stroke="#e2e8f0" stroke-width="1" width="742.64" x="0" y="392"/><rect fill="#f1f5f9" height="22" rx="4" ry="4" stroke="#cbd5e1" stroke-width="1" width="166.8" x="10" y="402"/><text fill="#334155" font-family="system-ui, -apple-system, &quot;Segoe UI&quot;, Roboto, sans-serif" font-size="12" font-weight="600" x="22" y="417">Mobile</text><text fill="#64748b" font-family="system-ui, -apple-system, &quot;Segoe UI&quot;, Roboto, sans-serif" font-size="10" x="64" y="417">owner: Mobile Team</text><text fill="#dc2626" font-family="system-ui, -apple-system, &quot;Segoe UI&quot;, Roboto, sans-serif" font-size="10" font-weight="700" text-anchor="end" x="168.8" y="416">1</text><g data-id="offline" data-layer="item"><rect fill="#fffbeb" filter="url(#nl-0-root-shadow-subtle)" height="56" rx="4" ry="4" stroke="#f59e0b" stroke-width="1" width="68" x="176.64" y="430"/><circle cx="232.64" cy="442" fill="#f59e0b" r="5"/><text fill="#0f172a" font-family="system-ui, -apple-system, &quot;Segoe UI&quot;, Roboto, sans-serif" font-size="13" font-weight="600" x="250.64" y="450">Offline mode</text><text fill="#f59e0b" font-family="system-ui, -apple-system, &quot;Segoe UI&quot;, Roboto, sans-serif" font-size="11" x="250.64" y="468">Jennifer Wu</text><text fill="#dc2626" font-family="system-ui, -apple-system, &quot;Segoe UI&quot;, Roboto, sans-serif" font-size="10" font-weight="700" text-anchor="end" x="222.64" y="444">1</text></g><g data-id="push-v2" data-layer="item"><rect fill="#f8fafc" filter="url(#nl-0-root-shadow-subtle)" height="56" rx="4" ry="4" stroke="#94a3b8" stroke-width="1" width="28" x="256.64" y="494"/><circle cx="272.64" cy="506" fill="#94a3b8" r="5"/><text fill="#0f172a" font-family="system-ui, -apple-system, &quot;Segoe UI&quot;, Roboto, sans-serif" font-size="13" font-weight="600" x="290.64" y="514">Push notifications v2</text><text fill="#94a3b8" font-family="system-ui, -apple-system, &quot;Segoe UI&quot;, Roboto, sans-serif" font-size="11" x="290.64" y="532">Mobile Team</text></g></g><path d="M170.64 61 L196.64 61 Q200.64 61 200.64 65 L200.64 144 Q200.64 148 204.64 148 L210.64 148" fill="none" marker-end="url(#nl-arrow)" stroke="#475569" stroke-linejoin="round" stroke-width="1.1"/><path d="M170.64 61 L196.64 61 Q200.64 61 200.64 65 L200.64 454 Q200.64 458 204.64 458 L210.64 458" fill="none" marker-end="url(#nl-arrow)" stroke="#475569" stroke-linejoin="round" stroke-width="1.1"/><line stroke="#64748b" stroke-dasharray="1 3" stroke-width="1" x1="170.64" x2="170.64" y1="68" y2="574"/><line stroke="#64748b" stroke-dasharray="1 3" stroke-width="1" x1="618.64" x2="618.64" y1="68" y2="574"/><line stroke="#64748b" stroke-dasharray="1 3" stroke-width="1" x1="730.64" x2="730.64" y1="47" y2="574"/><line stroke="#1e1b4b" stroke-dasharray="6 4" stroke-linecap="round" stroke-width="2" x1="250.64" x2="250.64" y1="68" y2="574"/><line stroke="#1e1b4b" stroke-dasharray="6 4" stroke-linecap="round" stroke-width="2" x1="330.64" x2="330.64" y1="68" y2="574"/><path d="M250.64 148 H324.64" fill="none" marker-end="url(#nl-arrow-dark)" stroke="#0f172a" stroke-dasharray="3 3" stroke-linecap="round" stroke-width="1.1"/><line stroke="#1e1b4b" stroke-dasharray="6 4" stroke-linecap="round" stroke-width="2" x1="730.64" x2="730.64" y1="68" y2="574"/><g data-id="kickoff" data-layer="anchor"><path d="M170.64 55 L176.64 61 L170.64 67 L164.64 61 Z" fill="#ffffff" stroke="#334155" stroke-width="1.25"/><text fill="#334155" font-family="system-ui, -apple-system, &quot;Segoe UI&quot;, Roboto, sans-serif" font-size="10" x="182.64" y="65">kickoff</text></g><g data-id="code-freeze" data-layer="anchor"><path d="M618.64 55 L624.64 61 L618.64 67 L612.64 61 Z" fill="#ffffff" stroke="#334155" stroke-width="1.25"/><text fill="#334155" font-family="system-ui, -apple-system, &quot;Segoe UI&quot;, Roboto, sans-serif" font-size="10" x="630.64" y="65">Code Freeze</text></g><g data-id="ga-date" data-layer="anchor"><path d="M730.64 34 L736.64 40 L730.64 46 L724.64 40 Z" fill="#ffffff" stroke="#334155" stroke-width="1.25"/><text fill="#334155" font-family="system-ui, -apple-system, &quot;Segoe UI&quot;, Roboto, sans-serif" font-size="10" x="742.64" y="44">GA Date</text></g><g data-id="beta" data-layer="milestone"><path d="M250.64 55 L256.64 61 L250.64 67 L244.64 61 Z" fill="#0f172a" stroke="#0f172a" stroke-width="1"/><text fill="#0f172a" font-family="system-ui, -apple-system, &quot;Segoe UI&quot;, Roboto, sans-serif" font-size="10" font-weight="600" x="262.64" y="65">Beta</text></g><g data-id="v1-ga" data-layer="milestone"><path d="M330.64 55 L336.64 61 L330.64 67 L324.64 61 Z" fill="#0f172a" stroke="#0f172a" stroke-width="1"/><text fill="#0f172a" font-family="system-ui, -apple-system, &quot;Segoe UI&quot;, Roboto, sans-serif" font-size="10" font-weight="600" x="342.64" y="65">v1 GA</text></g><g data-id="ga-launch" data-layer="milestone"><path d="M730.64 55 L736.64 61 L730.64 67 L724.64 61 Z" fill="#0f172a" stroke="#0f172a" stroke-width="1"/><text fill="#0f172a" font-family="system-ui, -apple-system, &quot;Segoe UI&quot;, Roboto, sans-serif" font-size="10" font-weight="600" x="742.64" y="65">GA launch</text></g><g data-layer="nowline"><line stroke="#e53e3e" stroke-width="2.25" x1="498.64" x2="498.64" y1="24" y2="670"/><rect fill="#e53e3e" height="16" rx="8" ry="8" width="36" x="480.64" y="8"/><text fill="#ffffff" font-family="system-ui, -apple-system, &quot;Segoe UI&quot;, Roboto, sans-serif" font-size="10" font-weight="700" text-anchor="middle" x="498.64" y="20">now</text></g><g data-layer="footnotes"><rect fill="#ffffff" filter="url(#nl-0-root-shadow-subtle)" height="80" rx="6" ry="6" stroke="#e2e8f0" stroke-width="1" width="710.64" x="16" y="590"/><text fill="#0f172a" font-family="system-ui, -apple-system, &quot;Segoe UI&quot;, Roboto, sans-serif" font-size="12" font-weight="700" x="32" y="612">Footnotes</text><text fill="#dc2626" font-family="system-ui, -apple-system, &quot;Segoe UI&quot;, Roboto, sans-serif" font-size="10" font-weight="700" x="32" y="634">1</text><text fill="#0f172a" font-family="system-ui, -apple-system, &quot;Segoe UI&quot;, Roboto, sans-serif" font-size="11" font-weight="600" x="48" y="634">Team capacity risk</text><text fill="#64748b" font-family="system-ui, -apple-system, &quot;Segoe UI&quot;, Roboto, sans-serif" font-size="11" x="168" y="634">— Mobile team is down to 2 engineers through Q2.</text><text fill="#dc2626" font-family="system-ui, -apple-system, &quot;Segoe UI&quot;, Roboto, sans-serif" font-size="10" font-weight="700" x="32" y="652">2</text><text fill="#0f172a" font-family="system-ui, -apple-system, &quot;Segoe UI&quot;, Roboto, sans-serif" font-size="11" font-weight="600" x="48" y="652">Vendor dependency</text><text fill="#64748b" font-family="system-ui, -apple-system, &quot;Segoe UI&quot;, Roboto, sans-serif" font-size="11" x="168" y="652">— Blocked until vendor contract is signed.</text></g><g data-id="nl-0-root-header" data-layer="header"><rect fill="#ffffff" filter="url(#nl-0-root-shadow-subtle)" height="58" rx="6" ry="6" stroke="#e2e8f0" stroke-width="1" width="152.64" x="6" y="16"/><text fill="#0f172a" font-family="system-ui, -apple-system, &quot;Segoe UI&quot;, Roboto, sans-serif" font-size="16" font-weight="600" x="22" y="42">Platform 2026</text><text fill="#64748b" font-family="system-ui, -apple-system, &quot;Segoe UI&quot;, Roboto, sans-serif" font-size="11" x="22" y="60">Acme Engineering</text></g><a aria-label="Powered by nowline" href="https://nowline.io" rel="noopener" target="_blank"><g data-layer="attribution"><g transform="translate(654.48 682) scale(0.22)"><text fill="#94a3b8" font-family="system-ui, -apple-system, &quot;Segoe UI&quot;, Roboto, sans-serif" font-size="32" font-weight="400" x="0" y="40">Powered by</text><text fill="#94a3b8" font-family="system-ui, -apple-system, &quot;Segoe UI&quot;, Roboto, sans-serif" font-size="40" font-weight="700" x="195.6" y="40">now</text><rect fill="#e53e3e" height="40" width="5" x="269.6" y="12"/><text fill="#94a3b8" font-family="system-ui, -apple-system, &quot;Segoe UI&quot;, Roboto, sans-serif" font-size="40" font-weight="400" x="276.6" y="40">ine</text></g></g></a></svg>